<svg width="70" height="70" viewBox="0 0 70 70" fill="none" xmlns="http://www.w3.org/2000/svg">
<path fill-rule="evenodd" clip-rule="evenodd" d="M4.10051 4.10051C0 8.20101 0 14.8007 0 28V42C0 55.1993 0 61.799 4.10051 65.8995C8.20101 70 14.8007 70 28 70H42C55.1993 70 61.799 70 65.8995 65.8995C70 61.799 70 55.1993 70 42.0001V28C70 18.0623 70 11.8656 68.25 7.65996V52.5C64.8885 52.5 61.6646 51.1646 59.2877 48.7877L56.6569 46.1569C54.1323 43.6323 52.87 42.37 51.4387 41.838C49.8655 41.2533 48.1345 41.2533 46.5613 41.838C45.13 42.37 43.8677 43.6323 41.3431 46.1568L40.9472 46.5528C38.8984 48.6016 37.8741 49.6259 36.7856 49.817C35.9397 49.9654 35.0688 49.7977 34.3385 49.3457C33.3989 48.7641 32.8282 47.4326 31.6869 44.7695L31.5 44.3333C28.8763 38.2113 27.5644 35.1502 25.2759 34.003C24.1237 33.4254 22.8344 33.1771 21.5502 33.2855C18.9993 33.5007 16.6444 35.8556 11.9346 40.5654L5.25 47.25V3.10589C4.84539 3.40724 4.46317 3.73784 4.10051 4.10051Z" fill="#DDDDDD"/>
<path fill-rule="evenodd" clip-rule="evenodd" d="M42 7H28C21.2025 7 16.8085 7.01487 13.5709 7.45014C10.5348 7.85835 9.58312 8.51738 9.05025 9.05025C8.51738 9.58312 7.85835 10.5348 7.45014 13.5709C7.01487 16.8085 7 21.2024 7 28V42C7 48.7976 7.01487 53.1915 7.45014 56.4291C7.85835 59.4653 8.51738 60.4169 9.05025 60.9498C9.58312 61.4826 10.5347 62.1417 13.5709 62.5499C16.8085 62.9851 21.2024 63 28 63H42C48.7976 63 53.1915 62.9851 56.4291 62.5499C59.4653 62.1417 60.4169 61.4826 60.9498 60.9498C61.4826 60.4169 62.1417 59.4653 62.5499 56.4291C62.9851 53.1915 63 48.7976 63 42V28C63 21.2025 62.9851 16.8085 62.5499 13.5709C62.1417 10.5348 61.4826 9.58312 60.9498 9.05025C60.4169 8.51738 59.4653 7.85835 56.4291 7.45014C53.1915 7.01487 48.7976 7 42 7ZM4.10051 4.10051C0 8.20101 0 14.8007 0 28V42C0 55.1993 0 61.799 4.10051 65.8995C8.20101 70 14.8007 70 28 70H42C55.1993 70 61.799 70 65.8995 65.8995C70 61.799 70 55.1993 70 42.0001V28C70 14.8007 70 8.201 65.8995 4.10051C61.799 0 55.1993 0 42 0H28C14.8007 0 8.20101 0 4.10051 4.10051Z" fill="#DDDDDD"/>
<path d="M52.5 24.5C52.5 28.366 49.366 31.5 45.5 31.5C41.634 31.5 38.5 28.366 38.5 24.5C38.5 20.634 41.634 17.5 45.5 17.5C49.366 17.5 52.5 20.634 52.5 24.5Z" fill="#DDDDDD"/>
</svg>
