<svg width="100%" viewBox="0 0 217 176" fill="none" xmlns="http://www.w3.org/2000/svg">
<path d="M42.0871 16.9838C42.0871 26.3637 34.0114 33.9678 24.0495 33.9678C14.0875 33.9678 6.01183 26.3637 6.01183 16.9838C6.01183 7.60392 14.0875 0 24.0495 0C34.0114 0 42.0871 7.60392 42.0871 16.9838Z" fill="currentColor"/>
<path d="M210.439 16.9838C210.439 26.3637 202.363 33.9678 192.401 33.9678C182.439 33.9678 174.363 26.3637 174.363 16.9838C174.363 7.60392 182.439 0 192.401 0C202.363 0 210.439 7.60392 210.439 16.9838Z" fill="currentColor"/>
<path fill-rule="evenodd" clip-rule="evenodd" d="M19.2425 50.9792C29.1884 51.5104 36.7939 59.5326 36.2298 68.8974C35.4303 82.1695 37.4993 100.918 47.0664 115.719C55.7839 129.206 71.9885 141.532 105.388 141.532C138.907 141.532 156.908 129.061 167.065 114.998C177.947 99.9307 181.015 81.2321 180.272 68.8974C179.708 59.5326 187.313 51.5104 197.259 50.9792C207.205 50.4481 215.725 57.6092 216.289 66.974C217.365 84.8329 213.272 111.424 196.896 134.099C179.794 157.778 150.439 175.5 105.388 175.5C60.2155 175.5 31.9273 157.633 16.2497 133.378C1.42162 110.438 -0.806941 83.8954 0.212364 66.974C0.776481 57.6092 9.29652 50.4481 19.2425 50.9792Z" fill="currentColor"/>
<path fill-rule="evenodd" clip-rule="evenodd" d="M102.213 28.3065C108.854 28.3065 114.238 33.3758 114.238 39.6291V62.2745H126.263C132.904 62.2745 138.288 67.3437 138.288 73.597C138.288 79.8503 132.904 84.9196 126.263 84.9196H102.213C95.5713 84.9196 90.1875 79.8503 90.1875 73.597V39.6291C90.1875 33.3758 95.5713 28.3065 102.213 28.3065Z" fill="currentColorColor"/>
</svg>
