<svg width="12" height="10" viewBox="0 0 12 10" fill="none" xmlns="http://www.w3.org/2000/svg">
<path d="M6.44041 0.00705874C6.53405 0.00237265 6.62835 0 6.72322 0C9.63751 0 12 2.23858 12 5C12 7.76142 9.63751 10 6.72322 10C5.72299 10 4.78776 9.7363 3.99074 9.27827C6.77353 9.13902 8.9847 6.95685 8.9847 4.28533C8.9847 2.47167 7.9656 0.883552 6.44041 0.00705874Z" fill="white"/>
<path d="M1.74802 3.71429C1.82443 3.93151 1.86264 4.04013 1.90086 4.0875C2.05172 4.27451 2.34891 4.27451 2.49976 4.0875C2.53798 4.04013 2.57619 3.93151 2.65261 3.71429C2.71425 3.53906 2.74507 3.45144 2.78494 3.37213C2.93371 3.07622 3.18535 2.83779 3.49764 2.69682C3.58133 2.65904 3.6738 2.62984 3.85873 2.57143C4.08798 2.49902 4.2026 2.46282 4.2526 2.4266C4.44996 2.28366 4.44996 2.00206 4.2526 1.85911C4.2026 1.8229 4.08798 1.78669 3.85873 1.71429C3.6738 1.65588 3.58133 1.62667 3.49764 1.58889C3.18535 1.44792 2.93371 1.20949 2.78494 0.913579C2.74507 0.834275 2.71425 0.74666 2.65261 0.571429C2.57619 0.354202 2.53798 0.245589 2.49976 0.198212C2.34891 0.0112043 2.05172 0.0112043 1.90086 0.198212C1.86264 0.245589 1.82443 0.354202 1.74802 0.571429C1.68637 0.74666 1.65555 0.834275 1.61568 0.913579C1.46691 1.20949 1.21528 1.44792 0.902987 1.58889C0.819293 1.62667 0.726827 1.65588 0.541896 1.71429C0.312645 1.78669 0.198019 1.8229 0.14802 1.85911C-0.04934 2.00206 -0.04934 2.28366 0.14802 2.4266C0.198019 2.46282 0.312645 2.49902 0.541896 2.57143C0.726827 2.62984 0.819293 2.65904 0.902987 2.69682C1.21528 2.83779 1.46691 3.07622 1.61568 3.37213C1.65555 3.45144 1.68637 3.53906 1.74802 3.71429Z" fill="white"/>
</svg>
