<svg width="20" height="20" viewBox="0 0 20 20" fill="none" xmlns="http://www.w3.org/2000/svg">
<path fill-rule="evenodd" clip-rule="evenodd" d="M3.54752 12.873L1.43478 11.6768C1.69012 11.2258 2.0478 10.8737 2.22012 10.704C2.23758 10.6868 2.25314 10.6715 2.26649 10.6582L10.9996 1.92504C11.0219 1.90281 11.0444 1.88025 11.0672 1.8574C11.4101 1.51404 11.8184 1.10525 12.217 0.801143C12.6981 0.434046 13.4375 0 14.4332 0C15.4289 0 16.1682 0.434047 16.6493 0.801144C17.0479 1.10525 17.4562 1.51405 17.7991 1.8574C17.8219 1.88025 17.8445 1.90282 17.8667 1.92504L18.075 2.13332L16.3582 3.85008L16.1499 3.6418C15.3406 2.83251 14.936 2.42787 14.4332 2.42787C13.9303 2.42787 13.5257 2.83251 12.7164 3.6418L3.98326 12.3749C3.74696 12.6112 3.62882 12.7294 3.54752 12.873ZM4.96324 17.0388L3.27522 17.4608C2.83697 17.5704 2.61781 17.6252 2.49631 17.5037C2.37481 17.3822 2.42959 17.1631 2.53916 16.7248L3.34464 13.5029C3.42569 13.1787 3.46621 13.0166 3.54752 12.873L1.43478 11.6768C1.17945 12.1277 1.06154 12.6156 1.00473 12.8507C0.998972 12.8745 0.993843 12.8957 0.989262 12.914L0.18378 16.1359C0.180664 16.1484 0.177031 16.1627 0.172975 16.1787C0.131487 16.3422 0.0456763 16.6805 0.0147488 16.9967C-0.0221379 17.3737 -0.0550458 18.3859 0.779549 19.2205C1.61415 20.0551 2.62632 20.0221 3.00336 19.9853C3.3195 19.9543 3.65774 19.8685 3.82127 19.827C3.83726 19.823 3.85158 19.8193 3.86405 19.8162L7.08599 19.0107C7.10431 19.0062 7.12553 19.001 7.14935 18.9953C7.38439 18.9385 7.87226 18.8206 8.32323 18.5652M4.96324 17.0388L6.49714 16.6554C6.82134 16.5743 6.98343 16.5338 7.12703 16.4525C7.27062 16.3712 7.38877 16.253 7.62506 16.0167L16.3582 7.28361C17.1675 6.47432 17.5721 6.06967 17.5721 5.56685C17.5721 5.06402 17.1675 4.65937 16.3582 3.85008L18.075 2.13332C18.0972 2.15554 18.1198 2.17808 18.1426 2.20091C18.486 2.54383 18.8947 2.95211 19.1989 3.35069C19.566 3.83183 20 4.57115 20 5.56685C20 6.56255 19.5659 7.30187 19.1989 7.78301C18.8947 8.18159 18.4859 8.58987 18.1426 8.93279C18.1197 8.95562 18.0972 8.97815 18.075 9.00037L9.34182 17.7335C9.32847 17.7469 9.31315 17.7624 9.29596 17.7799C9.12633 17.9522 8.7742 18.3099 8.32323 18.5652" fill="#888888"/>
<path d="M11.3983 3.74594L15.0401 1.31807L18.6819 4.95988L16.2541 8.60168L11.3983 3.74594Z" fill="#888888"/>
</svg>
