<svg width="12" height="12" viewBox="0 0 12 12" fill="none" xmlns="http://www.w3.org/2000/svg">
<path fill-rule="evenodd" clip-rule="evenodd" d="M6 0C6.33137 0 6.6 0.268629 6.6 0.6V1.8C6.6 2.13137 6.33137 2.4 6 2.4C5.66863 2.4 5.4 2.13137 5.4 1.8V0.6C5.4 0.268629 5.66863 0 6 0ZM1.75736 1.75736C1.99167 1.52304 2.37157 1.52304 2.60589 1.75736L3.45442 2.60589C3.68873 2.8402 3.68873 3.2201 3.45442 3.45442C3.2201 3.68873 2.8402 3.68873 2.60589 3.45441L1.75736 2.60589C1.52305 2.37157 1.52305 1.99167 1.75736 1.75736ZM10.2426 1.75736C10.477 1.99167 10.477 2.37157 10.2426 2.60589L9.39411 3.45442C9.1598 3.68873 8.7799 3.68873 8.54558 3.45442C8.31127 3.2201 8.31127 2.8402 8.54558 2.60589L9.39411 1.75736C9.62843 1.52305 10.0083 1.52304 10.2426 1.75736ZM6 4.2C5.00589 4.2 4.2 5.00589 4.2 6C4.2 6.99411 5.00589 7.8 6 7.8C6.99411 7.8 7.8 6.99411 7.8 6C7.8 5.00589 6.99411 4.2 6 4.2ZM3 6C3 4.34315 4.34315 3 6 3C7.65685 3 9 4.34315 9 6C9 7.65685 7.65685 9 6 9C4.34315 9 3 7.65685 3 6ZM0 6C0 5.66863 0.268629 5.4 0.6 5.4H1.8C2.13137 5.4 2.4 5.66863 2.4 6C2.4 6.33137 2.13137 6.6 1.8 6.6H0.6C0.268629 6.6 0 6.33137 0 6ZM9.6 6C9.6 5.66863 9.86863 5.4 10.2 5.4H11.4C11.7314 5.4 12 5.66863 12 6C12 6.33137 11.7314 6.6 11.4 6.6H10.2C9.86863 6.6 9.6 6.33137 9.6 6ZM3.45442 8.54558C3.68873 8.7799 3.68873 9.1598 3.45442 9.39411L2.60589 10.2426C2.37157 10.477 1.99167 10.477 1.75736 10.2426C1.52304 10.0083 1.52304 9.62843 1.75736 9.39411L2.60589 8.54558C2.8402 8.31127 3.2201 8.31127 3.45442 8.54558ZM8.54558 8.54558C8.7799 8.31127 9.1598 8.31127 9.39411 8.54558L10.2426 9.39411C10.477 9.62843 10.477 10.0083 10.2426 10.2426C10.0083 10.477 9.62843 10.477 9.39411 10.2426L8.54558 9.39411C8.31127 9.1598 8.31127 8.7799 8.54558 8.54558ZM6 9.6C6.33137 9.6 6.6 9.86863 6.6 10.2V11.4C6.6 11.7314 6.33137 12 6 12C5.66863 12 5.4 11.7314 5.4 11.4V10.2C5.4 9.86863 5.66863 9.6 6 9.6Z" fill="#2D3540"/>
</svg>
